<svg width="108" height="45" viewBox="0 0 108 45" fill="none" xmlns="http://www.w3.org/2000/svg">
<path d="M15.808 42.76C15.808 44.136 15.008 45 13.248 45H3.232C1.472 45 0.672 44.136 0.672 42.76C0.672 41.832 1.088 41.224 2.048 40.52L2.72 40.104C3.904 39.4 4.768 38.504 5.696 35.336L13.6 8.968C14.304 6.6 14.112 5.704 12.736 4.904C11.616 4.264 11.136 3.528 11.136 2.44C11.136 1.032 11.968 0.199997 13.728 0.199997H33.824C35.584 0.199997 36.416 1.032 36.416 2.44C36.416 3.592 35.904 4.328 34.784 4.904C33.856 5.416 33.696 6.152 34.272 8.008L42.816 35.464C43.744 38.44 44.288 39.56 45.44 40.2C46.784 40.968 47.168 41.608 47.168 42.76C47.168 44.104 46.368 45 44.576 45H28.192C26.368 45 25.568 44.136 25.568 42.76C25.568 41.672 26.08 41.064 27.168 40.52L28.128 40.072C29.12 39.624 28.96 38.92 28.352 36.84L26.432 30.472H12.48L11.264 34.472C10.304 37.704 10.752 38.952 13.376 40.136L14.272 40.584C15.264 41.096 15.808 41.704 15.808 42.76ZM13.888 25.704H24.992L19.424 7.208L13.888 25.704ZM63.546 42.664C63.546 44.104 62.746 45 60.986 45H51.514C49.722 45 48.922 44.136 48.922 42.76C48.922 41.448 49.594 40.808 50.682 40.232L51.354 39.912C52.73 39.304 53.818 38.312 53.946 36.328L56.122 9.224C56.314 6.856 55.898 5.864 54.618 5.32L53.402 4.872C52.314 4.36 51.802 3.656 51.802 2.44C51.802 1.032 52.634 0.199997 54.394 0.199997H66.65C69.21 0.199997 70.522 1.256 71.738 4.52L79.162 24.168L86.106 4.616C87.322 1.192 88.602 0.199997 91.29 0.199997H103.514C105.306 0.199997 106.106 1.064 106.106 2.44C106.106 3.624 105.594 4.392 104.57 4.872L103.322 5.32C102.17 5.832 101.658 6.44 101.786 7.912L103.802 37.416C103.898 38.984 104.25 39.464 105.306 39.88L106.522 40.328C107.418 40.744 107.93 41.48 107.93 42.632C107.93 44.04 107.098 45 105.338 45H87.898C86.074 45 85.274 44.136 85.274 42.76C85.274 41.64 85.722 40.872 86.842 40.328L88.09 39.88C89.21 39.432 89.69 38.92 89.562 37.384L87.866 14.376L78.65 40.104C77.434 43.368 76.442 43.976 74.778 43.976C72.954 43.976 71.834 43.624 70.394 39.88L60.602 14.216L58.874 36.328C58.714 38.248 59.834 39.176 61.594 40.104L62.458 40.616C63.13 41.032 63.546 41.672 63.546 42.664Z" fill="#5D3D87"/>
</svg>
